 <svg
              viewBox="0 0 113 72"
              fill="#ff5b3d"
              xmlns="http://www.w3.org/2000/svg"
            >
              <path
                d="M75.7289 52.657C75.7289 57.9774 71.3389 62.308 65.9455 62.308C60.5521 62.308 56.1622 57.9774 56.1622 52.657V27.4192C56.1622 26.8907 56.494 26.3977 57.0258 26.2045L60.708 24.8832C61.2757 24.6781 61.9034 24.97 62.1113 25.5261C62.1553 25.6484 62.1753 25.7706 62.1753 25.8968V52.657C62.1753 54.7118 63.8665 56.3801 65.9495 56.3801C68.0325 56.3801 69.7237 54.7118 69.7237 52.657L69.7197 24.6505C69.7197 24.122 70.0516 23.629 70.5833 23.4358L74.2655 22.1145C74.8333 21.9094 75.461 22.2013 75.6689 22.7574C75.7129 22.8797 75.7329 23.0019 75.7329 23.1281L75.7289 52.657Z"
                fill="#ff5b3d"
              ></path>
              <path
                d="M93.0326 24.0273C90.9496 24.0273 89.2584 25.6957 89.2584 27.7505V45.0371C89.2584 47.088 90.9536 48.7602 93.0326 48.7602C95.1156 48.7602 96.8068 47.0919 96.8068 45.0371V27.7505C96.8068 25.6996 95.1116 24.0273 93.0326 24.0273ZM89.2504 68.362C89.2504 68.922 88.8906 69.3993 88.3828 69.5807L84.7006 70.9019C84.5846 70.9414 84.4607 70.9651 84.3328 70.9651C83.729 70.9651 83.2373 70.4839 83.2373 69.8844L83.2333 27.782C83.2333 22.4182 87.6312 18.0995 93.0286 18.0995C98.426 18.0995 102.816 22.43 102.816 27.7505L102.808 45.0332C102.808 50.3576 98.4181 54.6842 93.0206 54.6842C91.7212 54.6842 90.4219 54.416 89.2504 53.8007V68.362Z"
                fill="#ff5b3d"
              ></path>
              <path
                d="M35.0882 47.8886V8.30642C35.0882 8.18416 35.0683 8.05795 35.0203 7.93569C34.8124 7.37564 34.1847 7.08772 33.6169 7.29281L29.9347 8.61406C29.4029 8.80337 29.0711 9.30032 29.0711 9.82881V49.4109C29.0711 49.5332 29.0911 49.6594 29.1391 49.7817C29.347 50.3417 29.9747 50.6296 30.5424 50.4246L34.2247 49.1033C34.7564 48.9101 35.0882 48.4171 35.0882 47.8886Z"
                fill="#ff5b3d"
              ></path>
              <path
                d="M21.5667 18.9751C21.5667 14.4908 17.8804 10.9293 13.3346 10.9293C11.9872 10.953 10.7518 11.2606 9.70433 11.6353L5.1545 13.4495C4.58677 13.6546 4.29491 14.2738 4.50281 14.8339L5.76221 18.2455C5.97011 18.8055 6.59781 19.0934 7.16554 18.8883L11.8673 17.2003C13.2946 16.6876 14.8699 17.4133 15.3896 18.8213C15.5016 19.1289 15.5575 19.4405 15.5575 19.7481V24.8517C15.5575 25.1238 15.4096 25.3526 15.1657 25.4512L7.99314 28.4447C4.50681 29.8961 2.04798 33.284 2.004 37.2359H2V37.3227C2 37.3306 2 37.3345 2 37.3424V44.7887C2 50.1092 6.38991 54.4397 11.7833 54.4397C17.1768 54.4397 21.5667 50.1092 21.5667 44.7887V18.9751ZM11.7793 48.5118C9.69633 48.5118 8.00514 46.8435 8.00514 44.7887V37.3424C8.00514 35.8397 8.91271 34.5421 10.2161 33.9545L15.5535 31.6946V44.7887C15.5535 46.8435 13.8623 48.5118 11.7793 48.5118Z"
                fill="#ff5b3d"
              ></path>
              <path
                d="M56.0822 7.63205L49.4694 10.0024C48.9696 10.1838 48.6098 10.6611 48.6098 11.2172V45.1317C48.6098 45.6602 48.2779 46.1532 47.7462 46.3465L44.0639 47.6677C43.4962 47.8728 42.8685 47.581 42.6606 47.0249C42.6166 46.9026 42.5927 46.7803 42.5927 46.6541V8.53523C42.5927 7.08778 43.5122 5.85725 44.8076 5.37213L54.0192 2.06705C54.1351 2.02366 54.2631 2 54.395 2C54.8668 2 55.2706 2.2958 55.4225 2.70992L56.7299 6.25165C56.9418 6.8117 56.65 7.43091 56.0822 7.63205Z"
                fill="#ff5b3d"
              ></path>
              <path
                d="M102.896 14.7116C102.896 12.286 104.647 10.5151 107.13 10.5151C109.589 10.5151 111.34 12.2821 111.34 14.7116C111.34 17.1371 109.589 18.9277 107.13 18.9277C104.647 18.9277 102.896 17.1371 102.896 14.7116ZM103.792 14.7116C103.792 16.7072 105.083 18.1034 107.126 18.1034C109.149 18.1034 110.484 16.7033 110.484 14.7116C110.484 12.7159 109.149 11.3197 107.126 11.3197C105.083 11.3158 103.792 12.7159 103.792 14.7116ZM108.026 15.1612L109.193 16.8689L107.878 16.8887L106.878 15.244H106.522V16.8887H105.439V12.4674H107.442C108.381 12.4674 109.005 13.0038 109.005 13.8439C109.005 14.5025 108.629 14.9758 108.026 15.1612ZM106.522 13.4337V14.3606H107.378C107.67 14.3606 107.922 14.2146 107.922 13.8873C107.922 13.5599 107.67 13.4337 107.378 13.4337H106.522V13.4337Z"
                fill="#ff5b3d"
              ></path>
            </svg>